<svg id="hanrangen.svg" xmlns="http://www.w3.org/2000/svg" width="210.532" height="114.156" viewBox="0 0 210.532 114.156">
  <defs>
    <style>
      .cls-1 {
        fill: #858585;
      }

      .cls-1, .cls-2 {
        fill-rule: evenodd;
      }

      .cls-2 {
        fill: #fff;
      }
    </style>
  </defs>
  <path id="HANRANGEN" class="cls-1" d="M30.938,100.435H22.911v1.08c2.34,0,2.556.144,2.556,2.7v8.207H12.652v-8.207c0-2.556.216-2.7,2.592-2.7v-1.08h-8.1v1.08c2.664,0,2.88.144,2.88,2.772v18.861c0,2.556-.216,2.772-2.88,2.772V127h8.1v-1.08c-2.376,0-2.592-.18-2.592-2.736v-9.358H25.467v9.358c0,2.556-.216,2.736-2.556,2.736V127h8.027v-1.08c-2.628,0-2.844-.216-2.844-2.772V104.287c0-2.628.216-2.772,2.844-2.772v-1.08Zm18.314,23.073a4.781,4.781,0,0,1,.324,1.476c0,0.72-.5.936-2.016,0.936V127h6.875v-1.08c-1.332,0-1.764-.36-2.484-2.52L43.6,99.9H42.3L34.782,123.9c-0.54,1.692-.936,2.016-2.34,2.016V127h5.831v-1.08c-1.44,0-1.98-.18-1.98-0.972a7.705,7.705,0,0,1,.36-1.728l1.368-4.787h9.5Zm-10.763-6.479,3.959-12.994h0.108l4.5,12.994H38.489Zm17.381-16.594v1.08c2.664,0,2.844.108,2.844,2.736v18.9c0,2.592-.216,2.772-2.808,2.772V127H63v-1.08c-2.556,0-2.772-.18-2.772-2.772V103.063H60.3l13.894,24.225H76.28v-23c0-2.628.252-2.772,2.7-2.772v-1.08H71.853v1.08c2.664,0,2.916.144,2.916,2.772V123.58H74.7L61.45,100.435H55.871Zm24.926,0v1.08c2.664,0,2.88.144,2.88,2.772v18.825c0,2.592-.216,2.808-2.88,2.808V127H89.22v-1.08c-2.736,0-2.916-.144-2.916-2.772v-8.53h3.528L97,127h4.536v-1.08c-1.764,0-2.268-.288-3.672-2.556L92.5,114.258c3.744-.576,6.7-3.06,6.7-6.984a5.847,5.847,0,0,0-2.448-5.147c-1.764-1.3-3.707-1.692-6.911-1.692H80.8Zm8.927,1.368c2.412,0,3.923.5,4.967,1.368a5.036,5.036,0,0,1,1.728,3.995c0,4.248-2.628,6.048-7.415,6.048H86.3v-9.179c0-1.944.072-2.232,0.936-2.232h2.484Zm29.569,21.705a4.778,4.778,0,0,1,.324,1.476c0,0.72-.5.936-2.016,0.936V127h6.876v-1.08c-1.332,0-1.764-.36-2.484-2.52l-8.351-23.5h-1.3L104.823,123.9c-0.54,1.692-.936,2.016-2.34,2.016V127h5.832v-1.08c-1.44,0-1.98-.18-1.98-0.972a7.705,7.705,0,0,1,.36-1.728l1.368-4.787h9.5Zm-10.762-6.479,3.959-12.994H112.6l4.5,12.994h-8.566Zm17.381-16.594v1.08c2.664,0,2.844.108,2.844,2.736v18.9c0,2.592-.216,2.772-2.808,2.772V127h7.091v-1.08c-2.556,0-2.772-.18-2.772-2.772V103.063h0.072l13.9,24.225h2.087v-23c0-2.628.252-2.772,2.7-2.772v-1.08h-7.127v1.08c2.664,0,2.916.144,2.916,2.772V123.58h-0.072l-13.247-23.145h-5.579Zm41.923,6.444c-0.324-1.944-.612-3.672-0.792-5.688a14.173,14.173,0,0,0-5.759-1.3c-8.423,0-11.375,6.732-11.375,13.751,0,8.6,3.924,13.894,10.583,13.894a11.126,11.126,0,0,0,7.487-3.06v-4.751c0-1.692.144-1.836,2.376-1.836v-1.08h-7.811v1.08c2.772,0,2.988.18,2.988,2.016v4.355a7.416,7.416,0,0,1-4.824,1.836c-4.679,0-8.027-4.463-8.027-12.67,0-7.235,3.024-12.2,8.315-12.2,4.356,0,4.895,2.088,5.579,5.9Zm20.733,14.434h-1.3c-0.972,4.067-1.3,4.283-3.42,4.283h-6.731c-0.756,0-1.044-.18-1.044-1.62V113.862h5.111c1.656,0,1.908.216,1.908,3.707h1.26v-8.783H183.1c0,3.348-.252,3.672-1.908,3.672h-5.111v-8.927c0-1.512.108-1.728,1.368-1.728h5.363c2.016,0,2.376.108,3.348,4.212h1.3l-1.116-5.58H170.57v1.08c2.627,0,2.879.144,2.879,2.772v18.861c0,2.556-.252,2.772-2.879,2.772V127h16.774Zm1.175-20.878v1.08c2.664,0,2.844.108,2.844,2.736v18.9c0,2.592-.216,2.772-2.808,2.772V127h7.091v-1.08c-2.556,0-2.772-.18-2.772-2.772V103.063h0.072l13.9,24.225h2.087v-23c0-2.628.252-2.772,2.7-2.772v-1.08h-7.127v1.08c2.664,0,2.916.144,2.916,2.772V123.58h-0.072l-13.247-23.145h-5.579Z" transform="translate(-4.656 -13.375)"/>
  <path id="氾濫原" class="cls-2" d="M7.688,14.883c3.24,2.088,6.841,6.049,7.993,9.361a3.076,3.076,0,0,0,1.872.72,2.715,2.715,0,0,0,2.52-2.952c0-2.736-2.88-6.625-11.953-7.849ZM67.958,62.911C66.59,68.456,65.51,71.7,64.717,72.7c-0.72,1.008-1.944,1.08-3.312,1.08H41.027c-3.672,0-4.176-.432-4.176-3.6V21.147H60.109v28.37c0,0.936-.288,1.152-1.44,1.152H49.38v0.936c5.4,0.432,7.849.936,7.849,4.968,6.553-.576,7.561-3.24,7.561-6.913V22.516A5.888,5.888,0,0,0,67.958,21L61.693,16.4l-2.3,3.024H37.715l-5.544-2.376v53c0,6.7,2.016,8.065,9.073,8.065h20.45c7.633,0,9.937-.864,9.937-3.1,0-.864-0.432-1.08-2.952-1.872V62.911h-0.72ZM8.985,59.887s-0.792.072-3.24,0.072v1.584c3.744,0.36,5.184,1.08,5.184,7.7a58.511,58.511,0,0,1-.576,7.417c0.216,2.3,1.008,3.6,2.3,3.6,4.032,0,4.032-4.68,4.032-5.832,0-5.4-1.8-8.5-1.872-11.593A25.235,25.235,0,0,1,15.969,56.5c1.08-3.528,7.489-20.882,10.729-30.171l-1.3-.288c-13.249,29.81-14.185,31.827-14.617,32.4-0.648,1.512-.864,1.512-1.8,1.512V59.887Zm-4.32-26.21c3.168,1.8,6.625,5.4,7.777,8.5a3.243,3.243,0,0,0,1.8.648,2.571,2.571,0,0,0,2.448-2.808c0-2.592-2.808-6.193-11.665-7.129ZM118.572,48.582c1.944,0,2.808-.432,3.384-1.512l-5.472-3.96-2.809,3.744h-4.1V38.789h4.32v2.088c2.665,0,3.961-1.152,3.961-1.368V30.076a4.28,4.28,0,0,0,2.376-1.152l-5.184-3.6-1.729,2.232h-3.672V20.139h8.425c1.944,0,2.808-.432,3.312-1.512l-5.688-4.176-2.953,3.96H101.218l-5.112-2.3V51.894h0.648c2.16,0,3.6-1.152,3.6-1.512v-1.8h18.218Zm-4.681-11.521H100.354V29.284h13.537v7.777Zm-7.992-9.5h-5.545V20.139H105.9v7.417Zm-5.545,19.3V38.789H105.9v8.065h-5.545Zm36.507,28.874h-0.072V57.655c1.8-.216,2.809-0.576,3.313-1.368l-6.193-4.536-2.448,3.24H103.523l-5.257-2.3V75.728H91.858l0.432,1.728h48.676c1.944,0,2.664-.5,3.312-1.512l-4.9-4.608Zm-15.7,0h-7.417V56.5h7.417V75.728ZM109.787,56.5V75.728H102.73V56.5h7.057Zm22.538,19.226h-7.2V56.5h7.2V75.728Zm7.417-48.6c1.944,0,2.808-.5,3.384-1.584l-5.977-4.248-3.1,4.1h-7.2c0.936-2.88,1.8-5.977,2.52-9.073,1.728-.144,2.232-0.576,2.448-1.512l-7.273-1.44c-0.864,9.073-2.88,18.794-5.472,24.338l1.152,0.648a40.238,40.238,0,0,0,5.977-11.233h13.537ZM79.04,14.379a21.547,21.547,0,0,1,7.417,8.785,3.076,3.076,0,0,0,1.872.72,2.5,2.5,0,0,0,2.376-2.736c0-2.52-2.736-6.121-11.233-7.489Zm1.08,44.716s-0.792.072-3.1,0.072v1.656c3.384,0.36,4.9.5,4.9,8.209a69.6,69.6,0,0,1-.432,7.273c0,2.376.792,3.672,2.016,3.672,3.816,0,3.816-4.68,3.816-6.121,0-5.328-1.728-8.713-1.728-11.737A24.837,24.837,0,0,1,86.529,56c0.792-3.24,5.9-18.938,8.425-27.434l-1.368-.36C83,55.206,82.137,57.151,81.849,57.655c-0.648,1.512-.936,1.512-1.728,1.512V59.095ZM76.736,32.236c2.664,1.728,5.544,5.112,6.409,7.993a3.075,3.075,0,0,0,1.872.72,2.549,2.549,0,0,0,2.448-2.736c0-2.376-2.52-5.688-10.369-6.7Zm46.228,9.793,0.5,1.728H140.03c1.944,0,2.736-.432,3.312-1.512l-5.977-4.392-3.24,4.176H122.964Zm82.153-22.97H161.265l-5.472-2.376V37.061c0,14.185-.72,29.595-7.705,42.124l1.08,0.792C159.753,67.591,160.4,49.95,160.4,37.061V20.787h23.4c-0.288,2.88-.864,6.841-1.44,9.721h-9.145l-5.04-2.3V56.5c4.032,0,4.608-1.584,4.608-1.656V53.334h12.457V73.28c0,0.864-.432,1.152-1.656,1.152h-10.3v0.936c6.265,0.5,8.641,1.152,8.641,4.752,6.841-.576,7.921-3.1,7.921-6.769V53.334h12.457v2.592c3.312,0,4.68-1.512,4.68-1.656V33.533a5.907,5.907,0,0,0,3.1-1.512l-6.265-4.464-2.232,2.952H185.315c1.441-2.808,3.1-6.7,4.321-9.721h22.106c2.088,0,2.952-.432,3.456-1.512l-6.625-4.68Zm-2.808,21.746H172.786V32.236h29.523v8.569Zm-29.523,10.8V42.533h29.523v9.073H172.786ZM158.025,77.384a49.986,49.986,0,0,0,18.29-14.761,7.488,7.488,0,0,0,1.08.144,1.57,1.57,0,0,0,1.584-.936l-6.553-3.168A51.276,51.276,0,0,1,157.377,76.3Zm38.091-16.921c5.041,3.6,11.377,10.3,13.321,15.409a3.08,3.08,0,0,0,1.873.72c1.368,0,2.3-1.152,2.3-2.88,0-3.528-4.033-9.721-16.994-13.969Z" transform="translate(-4.656 -13.375)"/>
</svg>
